<svg width="65" height="64" viewBox="0 0 65 64" fill="none" xmlns="http://www.w3.org/2000/svg">
<path d="M32.5 0C19.1253 0 8.28714 6.69147 8.28714 14.9608C8.28714 20.1913 12.6397 24.8081 19.2262 27.4818C19.4568 27.5694 21.2439 28.2561 22.4113 28.7675C22.9446 28.2561 24.0399 27.3941 24.4867 27.0727C24.6885 26.9266 24.8903 26.7805 25.1064 26.6344C33.9269 20.3082 43.0499 17.6345 47.489 23.3617V13.4268H49.5067L33.3648 4.22235L17.2228 13.4268H19.2406V24.998C14.7583 22.5435 11.9479 18.9494 11.9479 14.9608C11.9479 7.55347 21.6763 1.53407 33.6818 1.53407C45.6874 1.53407 55.4158 7.53886 55.4158 14.9608C55.4158 18.8325 52.7639 22.3244 48.5122 24.7789C48.4546 24.8081 48.4113 24.8373 48.3537 24.8665C48.1375 24.9834 47.9069 25.1149 47.6907 25.2318C47.6331 25.1587 47.5754 25.0857 47.5178 25.0126C42.3725 19.0371 34.6331 21.2432 26.0433 27.5256C25.9424 27.5986 25.8415 27.6717 25.7406 27.7448C25.2362 28.1246 24.7173 28.5045 24.1985 28.9136C24.1696 28.9428 24.1408 28.9574 24.0976 28.9866C24.0832 29.0012 24.0832 29.0012 24.0688 29.0158C24.0832 29.0158 24.0976 29.0012 24.112 29.0012C24.1985 28.9574 24.2705 28.9282 24.357 28.899C27.5854 27.5402 31.3614 28.5045 33.408 29.4395C33.7683 29.6002 34.1142 29.7463 34.4601 29.8778C39.6342 31.8502 42.6752 29.9947 46.0765 27.7594C46.5377 27.4525 47.0133 27.1457 47.489 26.8389C47.7916 26.649 48.1087 26.4444 48.4258 26.2545C48.6564 26.1376 48.8725 26.0061 49.1031 25.8746C53.8016 23.1425 56.7273 19.2708 56.7273 14.9754C56.7129 6.69147 45.8748 0 32.5 0Z" fill="#F9ED32"/>
<path d="M32.5 0C19.1253 0 8.28714 6.69148 8.28714 14.9609C8.28714 20.1913 12.6397 24.8081 19.2262 27.4672C19.4568 27.5549 21.2439 28.2415 22.4113 28.7529C22.9446 28.2415 24.0399 27.3795 24.4867 27.0581C24.6885 26.912 24.8903 26.7659 25.1064 26.6198C27.2107 25.115 29.3149 23.8146 31.3903 22.7919V19.2563H23.5499C23.3481 19.8261 22.8149 20.2351 22.1807 20.2351C21.3736 20.2351 20.7251 19.5777 20.7251 18.7595C20.7251 17.9413 21.3736 17.2839 22.1807 17.2839C22.8149 17.2839 23.3481 17.693 23.5499 18.2628H31.5632H32.1685C32.2694 18.2628 32.3415 18.3504 32.3415 18.4381V19.0517V22.3098C32.5 22.2367 32.6586 22.1637 32.8315 22.0906V9.0145C32.2694 8.80996 31.8659 8.26938 31.8659 7.62653C31.8659 6.80836 32.5144 6.1509 33.3215 6.1509C34.1286 6.1509 34.7772 6.80836 34.7772 7.62653C34.7772 8.26938 34.3736 8.80996 33.8115 9.0145V21.6962C33.9701 21.6377 34.1286 21.5647 34.3016 21.5062V16.4511V15.8375C34.3016 15.7352 34.388 15.6622 34.4745 15.6622H35.0798H43.4102C43.612 15.0924 44.1453 14.6833 44.7794 14.6833C45.5865 14.6833 46.2351 15.3407 46.2351 16.1589C46.2351 16.9771 45.5865 17.6345 44.7794 17.6345C44.1453 17.6345 43.612 17.2254 43.4102 16.6556H35.2528V21.1848C40.326 19.5046 44.7794 19.8699 47.4889 23.3617V13.4268H49.5067L33.3648 4.22235L17.2228 13.4268H19.2406V24.9981C14.7583 22.5436 11.9479 18.9494 11.9479 14.9609C11.9479 7.55348 21.6763 1.53407 33.6818 1.53407C45.6874 1.53407 55.4158 7.53887 55.4158 14.9609C55.4158 18.8326 52.7639 22.3244 48.5122 24.7789C48.4546 24.8081 48.4113 24.8374 48.3537 24.8666C48.1375 24.9835 47.9069 25.115 47.6907 25.2318C47.6331 25.1588 47.5754 25.0857 47.5178 25.0127C44.3038 21.2871 40.0954 20.7465 35.2816 22.3828C34.9645 22.4997 34.6331 22.6166 34.316 22.7335C34.1574 22.7919 33.9989 22.865 33.826 22.9234C33.4801 23.0841 33.1486 23.2302 32.8315 23.3763C32.673 23.4494 32.5144 23.5224 32.3415 23.6101C32.0244 23.7708 31.6929 23.9315 31.3758 24.1069C29.6319 25.0419 27.8448 26.1961 26 27.5256C25.8991 27.5987 25.7982 27.6717 25.6973 27.7448C25.1929 28.1247 24.6741 28.5045 24.1552 28.9136C24.1264 28.9428 24.0976 28.9574 24.0543 28.9867C24.0399 29.0013 24.0399 29.0013 24.0255 29.0159C24.0399 29.0159 24.0543 29.0013 24.0687 29.0013C24.1552 28.9574 24.2273 28.9282 24.3138 28.899C26.663 27.9055 29.3005 28.1539 31.347 28.7237C31.6929 28.8113 32.01 28.9136 32.3127 29.0305C32.7018 29.162 33.0477 29.3081 33.3648 29.4542C33.7251 29.6149 34.071 29.761 34.4169 29.8925C39.5909 31.8649 42.632 30.0094 46.0333 27.7594C46.4945 27.4526 46.9701 27.1458 47.4457 26.839C47.7484 26.649 48.0654 26.4445 48.3825 26.2546C48.6131 26.1377 48.8293 26.0062 49.0599 25.8747C53.7583 23.1426 56.6841 19.2709 56.6841 14.9755C56.7129 6.69148 45.8747 0 32.5 0Z" fill="url(#paint0_linear_5_12)"/>
<path d="M22.8148 18.2627C22.6707 18.0582 22.4401 17.9413 22.1663 17.9413C21.7195 17.9413 21.3592 18.3066 21.3592 18.7595C21.3592 19.2124 21.7195 19.5777 22.1663 19.5777C22.4257 19.5777 22.6707 19.4462 22.8148 19.2562C22.9157 19.1247 22.9734 18.9494 22.9734 18.7595C22.9878 18.5696 22.9157 18.3942 22.8148 18.2627Z" fill="url(#paint1_linear_5_12)"/>
<path d="M44.7794 15.3115C44.52 15.3115 44.275 15.443 44.1308 15.6329C44.0299 15.7644 43.9723 15.9397 43.9723 16.1297C43.9723 16.3196 44.0299 16.4803 44.1308 16.6264C44.275 16.831 44.5055 16.9478 44.7794 16.9478C45.2262 16.9478 45.5865 16.5826 45.5865 16.1297C45.5865 15.6767 45.2262 15.3115 44.7794 15.3115Z" fill="url(#paint2_linear_5_12)"/>
<path d="M33.3215 6.80835C32.8747 6.80835 32.5144 7.1736 32.5144 7.62652C32.5144 7.8895 32.6441 8.13788 32.8315 8.28398C32.9612 8.38625 33.1341 8.44469 33.3215 8.44469C33.5089 8.44469 33.6674 8.38625 33.8115 8.28398C34.0133 8.13788 34.1286 7.90411 34.1286 7.62652C34.1286 7.1736 33.7539 6.80835 33.3215 6.80835Z" fill="url(#paint3_linear_5_12)"/>
<path d="M51.755 33.3843H38.6685C42.5599 33.3843 44.7217 36.584 44.7217 40.5287C44.7217 44.1375 43.439 47.1033 40.0089 47.6001C44.1885 47.8631 46.1486 51.3841 46.1486 55.6795C46.1486 60.1503 43.4102 63.7736 39 63.7736H51.265C60.4169 63.7736 65 58.7185 65 48.6082C65 38.4541 60.5898 33.3843 51.755 33.3843ZM54.6519 58.5139C53.8448 60.3402 52.3891 61.2606 50.2993 61.2606H48.0078V35.8973H50.2993C52.4036 35.8973 53.8592 36.8031 54.6663 38.6294C55.459 40.4557 55.8625 43.7722 55.8625 48.5644C55.8625 53.3711 55.459 56.673 54.6519 58.5139Z" fill="url(#paint4_linear_5_12)"/>
<path d="M36.7805 47.6016C38.0488 47.4263 39.2162 46.9003 40.1674 46.126C41.5943 44.9864 42.5599 43.2916 42.7761 41.3776C42.8049 41.1 42.8337 40.8224 42.8337 40.5449C42.8337 36.6001 39.6774 33.4005 35.786 33.4005C35.4113 33.4005 33.2783 33.4005 32.5 33.4005H23.9967H19.1685H0V36.454H7.40798V63.8043H16.6319V36.4248H19.1541V63.7751H33.9845C34.4745 63.7751 35.9734 63.7751 36.2617 63.7751C38.2794 63.7751 40.1242 63.0154 41.5222 61.7735C42.2572 61.1161 42.877 60.3271 43.3382 59.4359C43.9146 58.3109 44.2461 57.0398 44.2461 55.6811C44.2606 51.371 40.9601 47.8646 36.7805 47.6016ZM27.8592 35.8988H30.3237C30.3526 35.8988 30.3814 35.8988 30.4102 35.8988C32.9756 35.9426 34.2439 37.652 34.2439 41.0416C34.2439 44.0659 33.4224 45.863 31.7794 46.4182C31.4047 46.5497 30.9867 46.6081 30.5255 46.6081H27.8448V35.8988H27.8592ZM30.4823 61.2622C30.439 61.2622 30.3958 61.2622 30.3381 61.2622H27.8592V49.1211H30.194C30.6408 49.1211 31.0444 49.1649 31.4335 49.2379C33.9557 49.7347 35.224 51.8532 35.224 55.608C35.224 59.319 33.6386 61.2037 30.4823 61.2622Z" fill="url(#paint5_linear_5_12)"/>
<defs>
<linearGradient id="paint0_linear_5_12" x1="32.5029" y1="30.7031" x2="32.5029" y2="0" gradientUnits="userSpaceOnUse">
<stop stop-color="#2E3192"/>
<stop offset="1" stop-color="#00AEEF"/>
</linearGradient>
<linearGradient id="paint1_linear_5_12" x1="22.1735" y1="19.5728" x2="22.1735" y2="17.9358" gradientUnits="userSpaceOnUse">
<stop stop-color="#2E3192"/>
<stop offset="1" stop-color="#00AEEF"/>
</linearGradient>
<linearGradient id="paint2_linear_5_12" x1="44.7779" y1="16.9541" x2="44.7779" y2="15.3172" gradientUnits="userSpaceOnUse">
<stop stop-color="#2E3192"/>
<stop offset="1" stop-color="#00AEEF"/>
</linearGradient>
<linearGradient id="paint3_linear_5_12" x1="33.3144" y1="8.44352" x2="33.3144" y2="6.80689" gradientUnits="userSpaceOnUse">
<stop stop-color="#2E3192"/>
<stop offset="1" stop-color="#00AEEF"/>
</linearGradient>
<linearGradient id="paint4_linear_5_12" x1="51.8371" y1="63.7791" x2="51.8371" y2="33.3789" gradientUnits="userSpaceOnUse">
<stop stop-color="#2E3192"/>
<stop offset="1" stop-color="#00AEEF"/>
</linearGradient>
<linearGradient id="paint5_linear_5_12" x1="22.1316" y1="63.7807" x2="22.1316" y2="33.3804" gradientUnits="userSpaceOnUse">
<stop stop-color="#2E3192"/>
<stop offset="1" stop-color="#00AEEF"/>
</linearGradient>
</defs>
</svg>
