<svg id="Layer_1" data-name="Layer 1" width="120" height="60" xmlns="http://www.w3.org/2000/svg" xmlns:xlink="http://www.w3.org/1999/xlink" viewBox="0 0 32 8.54"><defs><style>.cls-1{fill:#f9ed32;}.cls-2{fill:url(#linear-gradient);}.cls-3{fill:url(#linear-gradient-2);}.cls-4{fill:url(#linear-gradient-3);}.cls-5{fill:url(#linear-gradient-4);}.cls-6{fill:url(#linear-gradient-5);}.cls-7{fill:url(#linear-gradient-6);}</style><linearGradient id="linear-gradient" x1="6.83" y1="20.27" x2="6.83" y2="11.73" gradientUnits="userSpaceOnUse"><stop offset="0" stop-color="#2e3192"/><stop offset="1" stop-color="#00aeef"/></linearGradient><linearGradient id="linear-gradient-2" x1="3.92" y1="17.17" x2="3.92" y2="16.72" xlink:href="#linear-gradient"/><linearGradient id="linear-gradient-3" x1="10.29" y1="16.45" x2="10.29" y2="15.99" xlink:href="#linear-gradient"/><linearGradient id="linear-gradient-4" x1="7.06" y1="14.08" x2="7.06" y2="13.62" xlink:href="#linear-gradient"/><linearGradient id="linear-gradient-5" x1="28.29" y1="20.23" x2="28.29" y2="11.77" xlink:href="#linear-gradient"/><linearGradient id="linear-gradient-6" x1="19.91" y1="20.23" x2="19.91" y2="11.77" xlink:href="#linear-gradient"/></defs><path class="cls-1" d="M6.83,11.73C3.06,11.73,0,13.59,0,15.89c0,1.46,1.23,2.74,3.09,3.48.06,0,.57.22.89.36a7.11,7.11,0,0,1,.59-.47l.17-.13c2.49-1.76,5.06-2.5,6.32-.91V15.46h.57L7.07,12.9,2.52,15.46h.57v3.22A3.36,3.36,0,0,1,1,15.89c0-2.06,2.74-3.74,6.13-3.74s6.13,1.68,6.13,3.74a3.31,3.31,0,0,1-1.95,2.73l0,0-.19.1,0-.06C9.61,17,7.42,17.64,5,19.39l-.09.06-.43.32,0,0h0l.07,0a3.4,3.4,0,0,1,2.55.16l.3.12a3.21,3.21,0,0,0,3.28-.59l.4-.26.26-.16h0l.19-.11a3.69,3.69,0,0,0,2.15-3C13.66,13.59,10.6,11.73,6.83,11.73Z" transform="translate(0 -11.73)"/><path class="cls-2" d="M6.83,11.73C3.06,11.73,0,13.59,0,15.89c0,1.46,1.23,2.74,3.09,3.48.06,0,.57.22.89.36a7.11,7.11,0,0,1,.59-.47l.17-.13a12.35,12.35,0,0,1,1.77-1.06v-1H4.3a.4.4,0,0,1-.38.28A.41.41,0,0,1,3.51,17a.41.41,0,0,1,.41-.41.39.39,0,0,1,.38.27H6.74a.05.05,0,0,1,0,.05v1.08l.13-.06V14.24a.41.41,0,0,1-.27-.39.41.41,0,1,1,.82,0,.41.41,0,0,1-.27.39v3.52l.13-.05V16.13a.05.05,0,0,1,0-.05H9.91a.4.4,0,0,1,.38-.27.41.41,0,0,1,.41.41.4.4,0,0,1-.79.13H7.61v1.27c1.43-.47,2.68-.37,3.45.6V15.46h.57L7.07,12.9,2.52,15.46h.57v3.22A3.36,3.36,0,0,1,1,15.89c0-2.06,2.74-3.74,6.13-3.74s6.13,1.68,6.13,3.74a3.31,3.31,0,0,1-1.95,2.73l0,0-.19.1,0-.06A3,3,0,0,0,7.61,18l-.28.1-.13.05-.28.12-.13.07-.28.14A11.28,11.28,0,0,0,5,19.39l-.09.06-.43.32,0,0h0l.07,0a3.2,3.2,0,0,1,2-.05l.28.09.29.12.3.12a3.21,3.21,0,0,0,3.28-.59l.4-.26.26-.16h0l.19-.11a3.69,3.69,0,0,0,2.15-3C13.66,13.59,10.6,11.73,6.83,11.73Z" transform="translate(0 -11.73)"/><path class="cls-3" d="M4.1,16.81a.24.24,0,0,0-.18-.09.23.23,0,1,0,0,.45.21.21,0,0,0,.18-.09.18.18,0,0,0,0-.13A.23.23,0,0,0,4.1,16.81Z" transform="translate(0 -11.73)"/><path class="cls-4" d="M10.29,16a.24.24,0,0,0-.18.09.23.23,0,0,0,0,.14.18.18,0,0,0,0,.13.22.22,0,0,0,.18.1.23.23,0,0,0,.23-.23A.23.23,0,0,0,10.29,16Z" transform="translate(0 -11.73)"/><path class="cls-5" d="M7.06,13.62a.23.23,0,0,0-.23.23.24.24,0,0,0,.09.18.22.22,0,0,0,.28,0,.24.24,0,0,0,.09-.18A.23.23,0,0,0,7.06,13.62Z" transform="translate(0 -11.73)"/><path class="cls-6" d="M28.26,11.77H24.57a1.77,1.77,0,0,1,1.71,2c0,1-.36,1.83-1.33,2,1.18.07,1.73,1.05,1.73,2.25a2.06,2.06,0,0,1-2,2.25h3.46Q32,20.23,32,16T28.26,11.77Zm.82,7a1.24,1.24,0,0,1-1.23.77h-.64V12.47h.64a1.22,1.22,0,0,1,1.23.76A7.59,7.59,0,0,1,29.42,16,7.56,7.56,0,0,1,29.08,18.76Z" transform="translate(0 -11.73)"/><path class="cls-7" d="M24,15.73a2,2,0,0,0,.95-.41A2,2,0,0,0,25.73,14a1.69,1.69,0,0,0,0-.23,2,2,0,0,0-2-2H13.66v.85h2.09v7.61h2.6V12.62h.72v7.61h4.82a2.25,2.25,0,0,0,1.49-.56A2.28,2.28,0,0,0,26.15,18,2.25,2.25,0,0,0,24,15.73Zm-2.52-3.26h.72c.72,0,1.08.49,1.08,1.43s-.23,1.34-.69,1.5a1.29,1.29,0,0,1-.35,0h-.76Zm.74,7.06h-.74V16.15h.66a2,2,0,0,1,.35,0c.71.14,1.07.73,1.07,1.78S23.15,19.51,22.26,19.53Z" transform="translate(0 -11.73)"/></svg>