<svg viewBox="0 0 60 65" fill="none" xmlns="http://www.w3.org/2000/svg">
<g filter="url(#filter0_d_19_608)">
<ellipse cx="29.7116" cy="28.4535" rx="25.7107" ry="27.6313" fill="white"/>
<ellipse cx="29.7003" cy="28.5436" rx="20.8488" ry="22.4079" fill="url(#paint0_linear_19_608)"/>
<path d="M17.5654 35.9553C18.5219 37.023 19.9701 37.038 20.9447 35.9902L29.4723 26.8219L33.6566 31.4931L37.8409 36.1644C38.7973 37.2321 40.2455 37.247 41.2201 36.1992C42.1947 35.1514 42.2083 33.5648 41.2519 32.4971L31.2096 21.286C30.7314 20.7522 30.2509 20.4828 29.5268 20.4753C28.8027 20.4678 28.3177 20.7273 27.8304 21.2512L17.5972 32.2532C16.6227 33.301 16.609 34.8876 17.5654 35.9553Z" fill="#F2F2F2"/>
</g>
<defs>
<filter id="filter0_d_19_608" x="0.000976562" y="0.822266" width="59.4213" height="63.2627" filterUnits="userSpaceOnUse" color-interpolation-filters="sRGB">
<feFlood flood-opacity="0" result="BackgroundImageFix"/>
<feColorMatrix in="SourceAlpha" type="matrix" values="0 0 0 0 0 0 0 0 0 0 0 0 0 0 0 0 0 0 127 0" result="hardAlpha"/>
<feOffset dy="4"/>
<feGaussianBlur stdDeviation="2"/>
<feComposite in2="hardAlpha" operator="out"/>
<feColorMatrix type="matrix" values="0 0 0 0 0 0 0 0 0 0 0 0 0 0 0 0 0 0 0.25 0"/>
<feBlend mode="normal" in2="BackgroundImageFix" result="effect1_dropShadow_19_608"/>
<feBlend mode="normal" in="SourceGraphic" in2="effect1_dropShadow_19_608" result="shape"/>
</filter>
<linearGradient id="paint0_linear_19_608" x1="28.3104" y1="10.0497" x2="28.3104" y2="51.1637" gradientUnits="userSpaceOnUse">
<stop stop-color="#2A5298"/>
<stop offset="0.51875" stop-color="#1E3C72"/>
<stop offset="1" stop-color="#1E3C72"/>
</linearGradient>
</defs>
</svg>
