<svg width="25" height="24" viewBox="0 0 25 24" fill="none" xmlns="http://www.w3.org/2000/svg">
<g clip-path="url(#clip0_25_12)">
<path d="M17.0709 21.3083H5.02084C4.22187 21.3083 3.45563 20.9969 2.89068 20.4427C2.32572 19.8885 2.00834 19.1368 2.00834 18.353V10.472C2.00834 10.2107 1.90254 9.96017 1.71422 9.77542C1.5259 9.59067 1.27049 9.48689 1.00417 9.48689C0.737846 9.48689 0.482432 9.59067 0.294114 9.77542C0.105796 9.96017 0 10.2107 0 10.472L0 18.353C0 19.6593 0.52898 20.9121 1.47057 21.8359C2.41216 22.7596 3.68923 23.2785 5.02084 23.2785H17.0709C17.3372 23.2785 17.5926 23.1748 17.7809 22.99C17.9692 22.8053 18.075 22.5547 18.075 22.2934C18.075 22.0322 17.9692 21.7816 17.7809 21.5968C17.5926 21.4121 17.3372 21.3083 17.0709 21.3083ZM21.0875 3.57617H7.02918C6.23021 3.57617 5.46397 3.88754 4.89901 4.44178C4.33406 4.99601 4.01667 5.74772 4.01667 6.53153V16.3827C4.01667 17.1665 4.33406 17.9182 4.89901 18.4725C5.46397 19.0267 6.23021 19.3381 7.02918 19.3381H21.0875C21.8865 19.3381 22.6527 19.0267 23.2177 18.4725C23.7826 17.9182 24.1 17.1665 24.1 16.3827V6.53153C24.1 5.74772 23.7826 4.99601 23.2177 4.44178C22.6527 3.88754 21.8865 3.57617 21.0875 3.57617ZM20.6758 5.54641L14.7713 11.3389C14.678 11.4312 14.5669 11.5045 14.4445 11.5545C14.3222 11.6046 14.1909 11.6303 14.0584 11.6303C13.9258 11.6303 13.7945 11.6046 13.6722 11.5545C13.5498 11.5045 13.4387 11.4312 13.3454 11.3389L7.44089 5.54641H20.6758ZM22.0917 16.3827C22.0917 16.644 21.9859 16.8946 21.7976 17.0793C21.6093 17.264 21.3539 17.3678 21.0875 17.3678H7.02918C6.76286 17.3678 6.50744 17.264 6.31912 17.0793C6.13081 16.8946 6.02501 16.644 6.02501 16.3827V6.89602L11.9295 12.6885C12.4944 13.242 13.26 13.5528 14.0584 13.5528C14.8567 13.5528 15.6223 13.242 16.1872 12.6885L22.0917 6.89602V16.3827Z" fill="white"/>
</g>
<defs>
<clipPath id="clip0_25_12">
<rect width="24.1" height="23.6429" fill="white"/>
</clipPath>
</defs>
</svg>
