<svg width="25" height="24" viewBox="0 0 25 24" fill="none" xmlns="http://www.w3.org/2000/svg">
<path d="M11.0459 12.009V17.0331C11.0459 17.2944 11.1517 17.545 11.34 17.7297C11.5283 17.9145 11.7837 18.0182 12.05 18.0182C12.3163 18.0182 12.5718 17.9145 12.7601 17.7297C12.9484 17.545 13.0542 17.2944 13.0542 17.0331V12.009C14.2733 11.7649 15.3566 11.0854 16.094 10.1022C16.8314 9.11907 17.1705 7.90232 17.0454 6.68786C16.9204 5.4734 16.3401 4.34776 15.4172 3.52916C14.4942 2.71056 13.2943 2.25732 12.05 2.25732C10.8058 2.25732 9.60586 2.71056 8.6829 3.52916C7.75993 4.34776 7.17967 5.4734 7.05461 6.68786C6.92955 7.90232 7.26861 9.11907 8.00604 10.1022C8.74348 11.0854 9.82675 11.7649 11.0459 12.009ZM12.05 4.22656C12.6458 4.22656 13.2283 4.39989 13.7237 4.72463C14.2191 5.04937 14.6052 5.51093 14.8332 6.05095C15.0612 6.59097 15.1209 7.1852 15.0046 7.75848C14.8884 8.33177 14.6015 8.85836 14.1802 9.27168C13.7589 9.68499 13.2221 9.96646 12.6377 10.0805C12.0534 10.1945 11.4477 10.136 10.8972 9.91232C10.3467 9.68863 9.87624 9.30984 9.54522 8.82383C9.2142 8.33782 9.03752 7.76644 9.03752 7.18192C9.03752 6.39811 9.35491 5.6464 9.91986 5.09216C10.4848 4.53793 11.2511 4.22656 12.05 4.22656ZM16.2776 14.4915C16.1457 14.4643 16.0097 14.4629 15.8772 14.4873C15.7448 14.5117 15.6186 14.5615 15.5058 14.6338C15.3929 14.706 15.2957 14.7994 15.2197 14.9085C15.1436 15.0176 15.0902 15.1404 15.0625 15.2698C15.0348 15.3991 15.0334 15.5326 15.0583 15.6625C15.0831 15.7924 15.1339 15.9162 15.2075 16.0269C15.2812 16.1376 15.3764 16.233 15.4876 16.3076C15.5988 16.3822 15.724 16.4346 15.8558 16.4618C18.1353 16.9051 19.0792 17.703 19.0792 18.0182C19.0792 18.5896 16.619 19.9885 12.05 19.9885C7.48106 19.9885 5.02085 18.5896 5.02085 18.0182C5.02085 17.703 5.96477 16.9051 8.24423 16.4223C8.3761 16.3952 8.50122 16.3428 8.61245 16.2682C8.72369 16.1936 8.81885 16.0982 8.89252 15.9875C8.96618 15.8768 9.0169 15.753 9.04178 15.6231C9.06666 15.4932 9.06521 15.3597 9.03752 15.2304C9.00983 15.101 8.95643 14.9782 8.88039 14.8691C8.80434 14.76 8.70712 14.6666 8.5943 14.5944C8.48147 14.5221 8.35524 14.4723 8.22281 14.4479C8.09038 14.4235 7.95435 14.4249 7.82248 14.4521C4.76981 15.1417 3.01251 16.4322 3.01251 18.0182C3.01251 20.6091 7.56139 21.9587 12.05 21.9587C16.5387 21.9587 21.0875 20.6091 21.0875 18.0182C21.0875 16.4322 19.3302 15.1417 16.2776 14.4915Z" fill="white"/>
</svg>
