<svg width="25" height="25" viewBox="0 0 25 25" fill="none" xmlns="http://www.w3.org/2000/svg">
<path d="M19.4909 13.4496C19.27 13.4496 19.039 13.3806 18.8181 13.3314C18.3711 13.2333 17.9316 13.1049 17.5027 12.9472C17.0368 12.7809 16.5247 12.7896 16.065 12.9714C15.6053 13.1533 15.2303 13.4955 15.0123 13.9323L14.7914 14.3855C13.8162 13.8429 12.9152 13.1808 12.1103 12.4152C11.3299 11.6255 10.655 10.7417 10.1019 9.78495L10.5639 9.57807C11.0091 9.36422 11.3579 8.99639 11.5433 8.54536C11.7287 8.09434 11.7375 7.59199 11.568 7.13498C11.4085 6.71042 11.2777 6.27603 11.1764 5.83462C11.1262 5.61789 11.086 5.39132 11.0559 5.17459C10.934 4.48069 10.5635 3.85231 10.0112 3.4026C9.45889 2.95289 8.76107 2.71141 8.04339 2.72164H5.02085C4.59633 2.7211 4.17649 2.80858 3.78885 2.97835C3.40121 3.14812 3.05452 3.39635 2.77151 3.70676C2.48263 4.0256 2.26753 4.40201 2.141 4.81013C2.01446 5.21825 1.97948 5.64841 2.03847 6.07105C2.58432 10.1712 4.49387 13.9802 7.47102 16.9074C10.4547 19.828 14.3374 21.7014 18.5169 22.2368C18.6472 22.2466 18.7781 22.2466 18.9085 22.2368C19.649 22.2379 20.3639 21.9714 20.9168 21.4882C21.2332 21.2105 21.4863 20.8704 21.6593 20.4901C21.8324 20.1098 21.9216 19.698 21.921 19.2815V16.3261C21.9156 15.6455 21.6708 14.9875 21.2281 14.4634C20.7853 13.9393 20.1717 13.5812 19.4909 13.4496ZM19.983 19.3603C19.9826 19.4978 19.953 19.6336 19.8959 19.7592C19.8388 19.8847 19.7556 19.9972 19.6516 20.0893C19.5415 20.1877 19.4105 20.2608 19.2681 20.3034C19.1257 20.346 18.9754 20.357 18.8282 20.3356C15.0809 19.8554 11.5984 18.1801 8.91702 15.5676C6.23335 12.9348 4.51076 9.50652 4.01668 5.81492C3.99486 5.67043 4.00607 5.523 4.04949 5.38329C4.09291 5.24358 4.16745 5.11509 4.26772 5.00712C4.36273 4.90383 4.47897 4.82146 4.60878 4.76543C4.73859 4.70939 4.87903 4.68097 5.02085 4.68203H8.03335C8.26548 4.67647 8.49239 4.74999 8.67548 4.89009C8.85857 5.03019 8.98651 5.2282 9.03752 5.45042C9.03752 5.71641 9.12789 5.99224 9.18814 6.25822C9.3042 6.77429 9.45859 7.28134 9.65006 7.7753L8.24423 8.42548C8.00259 8.5343 7.8148 8.73269 7.72206 8.97715C7.62162 9.21699 7.62162 9.486 7.72206 9.72584C9.16726 12.7627 11.6556 15.2039 14.7512 16.6217C14.9957 16.7202 15.2699 16.7202 15.5144 16.6217C15.7636 16.5307 15.9658 16.3465 16.0767 16.1094L16.7094 14.7302C17.2274 14.9156 17.7574 15.0669 18.2959 15.1834C18.557 15.2425 18.8382 15.2918 19.1093 15.3312C19.3358 15.3812 19.5377 15.5067 19.6805 15.6863C19.8233 15.8659 19.8982 16.0886 19.8926 16.3163L19.983 19.3603ZM14.0584 2.61328C13.8274 2.61328 13.5864 2.61328 13.3554 2.61328C13.0891 2.63549 12.8427 2.76058 12.6704 2.96103C12.4981 3.16147 12.414 3.42087 12.4366 3.68214C12.4593 3.94341 12.5868 4.18515 12.7911 4.35419C12.9954 4.52324 13.2598 4.60573 13.5261 4.58352H14.0584C15.6563 4.58352 17.1888 5.20625 18.3187 6.31473C19.4486 7.4232 20.0834 8.92661 20.0834 10.4942C20.0834 10.6716 20.0834 10.839 20.0834 11.0163C20.0611 11.2762 20.1448 11.5342 20.3161 11.7336C20.4874 11.9331 20.7323 12.0577 20.9972 12.0803H21.0775C21.3289 12.0813 21.5715 11.9897 21.7574 11.8238C21.9433 11.6578 22.059 11.4294 22.0817 11.1838C22.0817 10.9572 22.0817 10.7208 22.0817 10.4942C22.0817 8.40578 21.2367 6.40272 19.7323 4.92504C18.2279 3.44736 16.1872 2.61589 14.0584 2.61328ZM16.0667 10.4942C16.0667 10.7555 16.1725 11.0061 16.3608 11.1908C16.5491 11.3756 16.8045 11.4794 17.0709 11.4794C17.3372 11.4794 17.5926 11.3756 17.7809 11.1908C17.9692 11.0061 18.075 10.7555 18.075 10.4942C18.075 9.44915 17.6518 8.44688 16.8986 7.7079C16.1453 6.96891 15.1236 6.55376 14.0584 6.55376C13.792 6.55376 13.5366 6.65755 13.3483 6.84229C13.16 7.02704 13.0542 7.27761 13.0542 7.53888C13.0542 7.80015 13.16 8.05071 13.3483 8.23546C13.5366 8.42021 13.792 8.52399 14.0584 8.52399C14.591 8.52399 15.1018 8.73157 15.4785 9.10106C15.8551 9.47056 16.0667 9.97169 16.0667 10.4942Z" fill="white"/>
</svg>
