<svg width="60" height="64" viewBox="0 0 60 64" fill="none" xmlns="http://www.w3.org/2000/svg">
<g filter="url(#filter0_d_19_616)">
<ellipse cx="29.7116" cy="27.748" rx="25.7107" ry="27.6313" fill="white"/>
</g>
<path d="M37.4979 31.8517C36.6422 30.9262 35.5739 30.9262 34.7235 31.8517C34.0749 32.5563 33.4263 33.2609 32.7886 33.9774C32.6141 34.1745 32.467 34.2163 32.2544 34.0849C31.8347 33.8341 31.3877 33.6311 30.9844 33.3564C29.1039 32.0607 27.5287 30.3948 26.1333 28.5199C25.441 27.5884 24.8251 26.5912 24.3945 25.4686C24.3073 25.2417 24.3237 25.0924 24.4926 24.9073C25.1413 24.2207 25.7735 23.5161 26.4113 22.8115C27.2997 21.8322 27.2997 20.6858 26.4058 19.7005C25.8989 19.1393 25.392 18.5899 24.8851 18.0286C24.3618 17.4554 23.844 16.8762 23.3153 16.309C22.4595 15.3954 21.3912 15.3954 20.5409 16.3149C19.8868 17.0195 19.26 17.742 18.595 18.4347C17.9791 19.0736 17.6684 19.8558 17.603 20.7694C17.4994 22.2562 17.8319 23.6594 18.3007 25.0268C19.26 27.8571 20.7208 30.3709 22.4922 32.6757C24.8851 35.7927 27.7412 38.2587 31.0825 40.0381C32.5869 40.8382 34.1458 41.4533 35.8409 41.5548C37.0074 41.6264 38.0212 41.304 38.8334 40.3068C39.3893 39.6261 40.0162 39.0051 40.6048 38.3543C41.4769 37.3869 41.4824 36.2166 40.6157 35.2612C39.5801 34.1207 38.539 32.9862 37.4979 31.8517Z" fill="#1E3C72"/>
<path d="M36.4564 27.093L38.4677 26.7168C38.1516 24.6926 37.2795 22.8594 35.955 21.4025C34.5542 19.8679 32.7827 18.9006 30.8313 18.6021L30.5479 20.8173C32.0578 21.0502 33.4313 21.7966 34.516 22.9848C35.5407 24.1074 36.2112 25.5285 36.4564 27.093Z" fill="#1E3C72"/>
<path d="M39.6019 17.5151C37.2799 14.9715 34.342 13.3652 31.0989 12.8696L30.8154 15.0849C33.6171 15.5148 36.1571 16.9061 38.1629 19.0975C40.0652 21.1814 41.3134 23.8147 41.7658 26.7106L43.7771 26.3345C43.2484 22.9787 41.804 19.9334 39.6019 17.5151Z" fill="#1E3C72"/>
<defs>
<filter id="filter0_d_19_616" x="0.000976562" y="0.116699" width="59.4213" height="63.2627" filterUnits="userSpaceOnUse" color-interpolation-filters="sRGB">
<feFlood flood-opacity="0" result="BackgroundImageFix"/>
<feColorMatrix in="SourceAlpha" type="matrix" values="0 0 0 0 0 0 0 0 0 0 0 0 0 0 0 0 0 0 127 0" result="hardAlpha"/>
<feOffset dy="4"/>
<feGaussianBlur stdDeviation="2"/>
<feComposite in2="hardAlpha" operator="out"/>
<feColorMatrix type="matrix" values="0 0 0 0 0 0 0 0 0 0 0 0 0 0 0 0 0 0 0.25 0"/>
<feBlend mode="normal" in2="BackgroundImageFix" result="effect1_dropShadow_19_616"/>
<feBlend mode="normal" in="SourceGraphic" in2="effect1_dropShadow_19_616" result="shape"/>
</filter>
</defs>
</svg>
