<svg width="156" height="156" viewBox="0 0 156 156" fill="none" xmlns="http://www.w3.org/2000/svg">
<circle cx="78" cy="78" r="50" fill="url(#paint0_linear_19_572)"/>
<circle cx="78" cy="78" r="65.5" stroke="white"/>
<circle cx="78" cy="78" r="77.5" stroke="white"/>
<path d="M91.625 71.7499L71.5 60.2082C70.411 59.5794 69.175 59.25 67.9175 59.2534C66.66 59.2569 65.4258 59.5931 64.3403 60.2279C63.2547 60.8627 62.3566 61.7735 61.737 62.8678C61.1174 63.9621 60.7984 65.2008 60.8125 66.4582V89.6249C60.8125 91.5146 61.5632 93.3268 62.8994 94.663C64.2356 95.9992 66.0478 96.7499 67.9375 96.7499C69.1884 96.7478 70.4168 96.4173 71.5 95.7916L91.625 84.2499C92.7064 83.6241 93.6042 82.7248 94.2283 81.6425C94.8524 80.5601 95.181 79.3327 95.181 78.0832C95.181 76.8338 94.8524 75.6064 94.2283 74.524C93.6042 73.4416 92.7064 72.5424 91.625 71.9166V71.7499ZM89.5417 80.4791L69.4167 92.1874C68.9656 92.443 68.456 92.5774 67.9375 92.5774C67.419 92.5774 66.9094 92.443 66.4583 92.1874C66.0085 91.9277 65.635 91.5542 65.3754 91.1044C65.1157 90.6545 64.9791 90.1443 64.9792 89.6249V66.3749C64.9791 65.8555 65.1157 65.3453 65.3754 64.8955C65.635 64.4456 66.0085 64.0721 66.4583 63.8124C66.9113 63.5607 67.4194 63.4247 67.9375 63.4166C68.4553 63.4272 68.9628 63.563 69.4167 63.8124L89.5417 75.4374C89.9916 75.697 90.3653 76.0705 90.6251 76.5203C90.8849 76.9701 91.0217 77.4804 91.0217 77.9999C91.0217 78.5194 90.8849 79.0297 90.6251 79.4795C90.3653 79.9293 89.9916 80.3028 89.5417 80.5624V80.4791Z" fill="white"/>
<defs>
<linearGradient id="paint0_linear_19_572" x1="78" y1="39" x2="78" y2="128" gradientUnits="userSpaceOnUse">
<stop stop-color="#2A5298"/>
<stop offset="0.513542" stop-color="#1E3C72"/>
<stop offset="1" stop-color="#1E3C72"/>
</linearGradient>
</defs>
</svg>
