<svg width="60" height="64" viewBox="0 0 60 64" fill="none" xmlns="http://www.w3.org/2000/svg">
<g filter="url(#filter0_d_19_633)">
<ellipse cx="29.7116" cy="28.3368" rx="25.7107" ry="27.6313" fill="white"/>
</g>
<path d="M42.8064 19.407C41.8323 19.875 40.7944 20.1853 39.7123 20.3359C40.8255 19.6078 41.6752 18.4637 42.0746 17.0846C41.0367 17.7625 39.8908 18.2413 38.6695 18.5085C37.684 17.3589 36.2794 16.647 34.7471 16.647C31.7742 16.647 29.3808 19.2904 29.3808 22.531C29.3808 22.9973 29.4168 23.4457 29.5052 23.8725C25.0409 23.634 21.0907 21.29 18.437 17.7194C17.9737 18.6 17.7019 19.6078 17.7019 20.6928C17.7019 22.7301 18.6596 24.536 20.0871 25.5816C19.2244 25.5636 18.378 25.2892 17.661 24.857C17.661 24.875 17.661 24.8983 17.661 24.9216C17.661 27.7802 19.5224 30.1547 21.9632 30.7017C21.5261 30.8326 21.0497 30.8953 20.5553 30.8953C20.2116 30.8953 19.8645 30.8738 19.5387 30.7949C20.2345 33.1245 22.2088 34.8372 24.5563 34.8928C22.7294 36.4584 20.4096 37.4017 17.8984 37.4017C17.458 37.4017 17.0356 37.3802 16.6133 37.321C18.9919 39.0014 21.811 39.9608 24.851 39.9608C34.7324 39.9608 40.1347 30.994 40.1347 23.2215C40.1347 22.9614 40.1265 22.7104 40.115 22.4611C41.1808 21.6326 42.0763 20.5978 42.8064 19.407Z" fill="#1E3C72"/>
<defs>
<filter id="filter0_d_19_633" x="0.000976562" y="0.705566" width="59.4213" height="63.2627" filterUnits="userSpaceOnUse" color-interpolation-filters="sRGB">
<feFlood flood-opacity="0" result="BackgroundImageFix"/>
<feColorMatrix in="SourceAlpha" type="matrix" values="0 0 0 0 0 0 0 0 0 0 0 0 0 0 0 0 0 0 127 0" result="hardAlpha"/>
<feOffset dy="4"/>
<feGaussianBlur stdDeviation="2"/>
<feComposite in2="hardAlpha" operator="out"/>
<feColorMatrix type="matrix" values="0 0 0 0 0 0 0 0 0 0 0 0 0 0 0 0 0 0 0.25 0"/>
<feBlend mode="normal" in2="BackgroundImageFix" result="effect1_dropShadow_19_633"/>
<feBlend mode="normal" in="SourceGraphic" in2="effect1_dropShadow_19_633" result="shape"/>
</filter>
</defs>
</svg>
